<?xml version="1.0" encoding="utf-8"?>
<!-- Generator: Adobe Illustrator 28.1.0, SVG Export Plug-In . SVG Version: 6.00 Build 0)  -->
<svg version="1.1" id="Layer_0_xA0_Image_1_" xmlns="http://www.w3.org/2000/svg" xmlns:xlink="http://www.w3.org/1999/xlink"
	 x="0px" y="0px" viewBox="0 0 288 288" style="enable-background:new 0 0 288 288;" xml:space="preserve">
<style type="text/css">
	.st0{fill:#2A5CAA;}
	.st1{fill:#FFFFFF;}
</style>
<g>
	<path class="st0" d="M288,224.88c0,34.86-28.08,63.12-62.73,63.12H62.42C27.78,288-0.3,259.75-0.3,224.88V63.01
		c0-34.86,28.08-63.12,62.73-63.12h162.85c34.64,0,62.73,28.26,62.73,63.12L288,224.88L288,224.88z"/>
</g>
<g>
	<path class="st1" d="M121.96,244.28c0.02-0.49,0.05-0.98,0.05-1.47c0-29.54,0-59.08,0-88.61c0-0.35,0-0.7,0-1.13
		c-0.49,0-0.88,0-1.27,0c-9.42,0-18.84,0-28.26,0c-1.31,0-1.32,0-1.32-1.26c0-11.06,0.01-22.11-0.02-33.17
		c0-1.01,0.3-1.26,1.28-1.26c9.42,0.03,18.84,0.02,28.26,0.02c0.39,0,0.78,0,1.32,0c0-0.38,0-0.73,0-1.07
		c0.02-9.19-0.06-18.38,0.07-27.58c0.11-7.39,1.54-14.55,4.76-21.26c4.38-9.11,11.25-15.62,20.6-19.5c6.25-2.59,12.78-3.8,19.51-3.7
		c7.71,0.11,15.42,0.46,23.13,0.74c1.43,0.05,2.86,0.29,4.29,0.37c0.8,0.04,1.07,0.34,1.06,1.14c-0.02,4.58-0.02,9.16-0.02,13.74
		c0,5.4-0.02,10.79,0.02,16.19c0.01,0.94-0.26,1.23-1.21,1.22c-5.86-0.04-11.71-0.11-17.57,0.02c-2.66,0.06-5.36,0.35-7.96,0.92
		c-5.01,1.1-7.97,4.41-8.97,9.4c-0.4,2-0.63,4.07-0.65,6.12c-0.07,7.49-0.03,14.98-0.03,22.47c0,0.22,0.02,0.45,0.05,0.79
		c0.44,0,0.86,0,1.28,0c10.79,0,21.59,0,32.38,0c1.41,0,1.44,0.01,1.26,1.34c-0.76,5.89-1.55,11.78-2.31,17.66
		c-0.63,4.92-1.25,9.85-1.84,14.77c-0.22,1.88-0.18,1.88-2.07,1.88c-9.16,0-18.32,0-27.48,0c-0.38,0-0.77,0-1.28,0
		c0,0.53,0,0.97,0,1.42c0,29.21,0,58.42,0,87.63c0,0.72-0.02,1.44-0.02,2.16C146.69,244.28,134.33,244.28,121.96,244.28z"/>
</g>
</svg>
