<?xml version="1.0" encoding="utf-8"?>
<!-- Generator: Adobe Illustrator 28.1.0, SVG Export Plug-In . SVG Version: 6.00 Build 0)  -->
<svg version="1.1" id="Layer_1" xmlns="http://www.w3.org/2000/svg" xmlns:xlink="http://www.w3.org/1999/xlink" x="0px" y="0px"
	 viewBox="0 0 641.59 640.26" style="enable-background:new 0 0 641.59 640.26;" xml:space="preserve">
<style type="text/css">
	.st0{fill:#C42F87;}
	.st1{fill:#FFFFFF;}
</style>
<g>
	<g>
		<path class="st0" d="M641.59,500c0,77.46-62.5,140.26-139.59,140.26H139.59C62.5,640.26,0,577.47,0,500V140.26
			C0,62.8,62.5,0,139.59,0H502c77.09,0,139.59,62.8,139.59,140.26L641.59,500L641.59,500z"/>
	</g>
	<path class="st1" d="M417.36,561.25H222.32c-74.63,0-135.69-61.06-135.69-135.69V217.73c0-74.63,61.06-135.69,135.69-135.69h195.04
		c74.63,0,135.69,61.06,135.69,135.69v207.83C553.05,500.19,491.99,561.25,417.36,561.25z M417.36,525.4
		c26.52,0,51.55-10.43,70.48-29.36c18.93-18.93,29.36-43.96,29.36-70.48V217.73c0-26.52-10.43-51.55-29.36-70.48
		s-43.96-29.36-70.48-29.36H222.32c-26.52,0-51.55,10.43-70.48,29.36s-29.36,43.96-29.36,70.48v207.83
		c0,26.52,10.43,51.55,29.36,70.48s43.96,29.36,70.48,29.36H417.36z"/>
	<path class="st1" d="M449,319.79c0,70.94-57.5,128.44-128.44,128.44s-128.44-57.5-128.44-128.44s57.5-128.44,128.44-128.44
		S449,248.86,449,319.79z M319.94,235.79c-46.45,0-84.1,37.65-84.1,84.1s37.65,84.1,84.1,84.1s84.1-37.65,84.1-84.1
		S366.39,235.79,319.94,235.79z"/>
	<circle class="st1" cx="451.06" cy="189.36" r="30.41"/>
</g>
</svg>
