<?xml version="1.0" encoding="utf-8"?>
<!-- Generator: Adobe Illustrator 28.1.0, SVG Export Plug-In . SVG Version: 6.00 Build 0)  -->
<svg version="1.1" id="Layer_1" xmlns="http://www.w3.org/2000/svg" xmlns:xlink="http://www.w3.org/1999/xlink" x="0px" y="0px"
	 viewBox="0 0 84.92 18.03" style="enable-background:new 0 0 84.92 18.03;" xml:space="preserve">
<style type="text/css">
	.st0{fill:#FFFFFF;}
</style>
<path class="st0" d="M22.51,10.58c-0.09,0.12,3.12,1.27,7.17-1.03c2.44-1.39,2.38-4.71,0.48-6.29c-1.25-1.04-2.56-1.2-4.46-0.96
	c-1.85,0.23-3.91,1.74-4.96,3.19c-2.53,3.49-2.68,10.93,4.89,10.32c4.41-0.36,6.03-5.05,6.03-5.05s-1.65,2.51-3.86,3.03
	c-6.93,1.61-7.25-3.18-6.27-5.78c1.85-4.91,6.97-4.2,7.37-2.17C29.83,10.49,22.51,10.58,22.51,10.58"/>
<path class="st0" d="M8.71,0.25c-3.95,2.71-5.03,6.49-4.96,9.9C2.92,10.84,1.7,11.61,0,12.08c0,0,2.09,0.64,3.94,0.25
	c0.4,2.61,1.33,4.77,1.85,5.7c0,0-1.87-11.42,4.13-15.45c0.11-0.08,0.21-0.15,0.31-0.22C11.58,1.36,10.1-0.71,8.71,0.25"/>
<path class="st0" d="M17.96,0.25C12.87,3.74,12.54,9.02,13.31,13c-0.94,1.24-3.12,3.59-6.65,4.45c0,0,4.33,0.78,7.35-1.81
	c0.36,1.06,0.75,1.9,1.03,2.39c0,0-1.87-11.42,4.13-15.45c0.11-0.08,0.21-0.15,0.31-0.22C20.83,1.36,19.35-0.71,17.96,0.25"/>
<path class="st0" d="M42.87,16.5c0,0-2.93-2.48-7.62-2.8l5.61-8.95c0.67-1.06-0.21-2.41-1.45-2.24c-2.33,0.31-4.73-0.06-7.86-0.96
	c0,0,2.93,2.48,7.62,2.8l-5.61,8.95c-0.67,1.06,0.21,2.41,1.45,2.24C37.35,15.23,39.75,15.59,42.87,16.5"/>
<path class="st0" d="M62.41,7.45c0.09-0.12-3.12-1.27-7.17,1.03c-2.44,1.39-2.38,4.71-0.48,6.29c1.25,1.04,2.56,1.2,4.46,0.96
	c1.85-0.23,3.91-1.74,4.96-3.19c2.53-3.49,2.68-10.93-4.89-10.32c-4.41,0.36-6.03,5.05-6.03,5.05s1.65-2.51,3.86-3.03
	c6.93-1.61,7.25,3.18,6.27,5.78c-1.85,4.91-6.97,4.2-7.37,2.17C55.09,7.54,62.41,7.45,62.41,7.45"/>
<path class="st0" d="M76.21,17.78c3.95-2.71,5.03-6.49,4.96-9.9c0.83-0.69,2.05-1.46,3.74-1.93c0,0-2.09-0.64-3.94-0.25
	c-0.4-2.61-1.33-4.77-1.85-5.7c0,0,1.87,11.42-4.13,15.45c-0.11,0.08-0.21,0.15-0.31,0.22C73.34,16.67,74.83,18.74,76.21,17.78"/>
<path class="st0" d="M66.96,17.78c5.09-3.49,5.42-8.77,4.65-12.75c0.94-1.24,3.12-3.59,6.65-4.45c0,0-4.33-0.78-7.35,1.81
	c-0.36-1.06-0.75-1.9-1.03-2.39c0,0,1.87,11.42-4.13,15.45c-0.11,0.08-0.21,0.15-0.31,0.22C64.09,16.67,65.57,18.74,66.96,17.78"/>
<path class="st0" d="M42.05,1.53c0,0,2.93,2.48,7.62,2.8l-5.61,8.95c-0.67,1.06,0.21,2.41,1.45,2.24c2.33-0.31,4.73,0.06,7.86,0.96
	c0,0-2.93-2.48-7.62-2.8l5.61-8.95c0.67-1.06-0.21-2.41-1.45-2.24C47.57,2.8,45.17,2.44,42.05,1.53"/>
</svg>
